<svg xmlns="http://www.w3.org/2000/svg" xmlns:xlink="http://www.w3.org/1999/xlink">    
        <g id="product-product-f2f0da2a-edbc-48a1-8ff4-4cac003f0b5c-body">
            <path style="stroke:black; fill:none;" d="M105.558,109.624 L106.038,110.2 L104.067,111.842 L102.044,109.414 L99.8171,106.74 L95.7979,101.915 L97.7687,100.273 L98.4888,101.137 L99.964,99.9086 L101.372,101.599 L106.329,107.55 L107.033,108.395 L105.558,109.624"/>
            <path style="stroke:black; fill:none;" d="M104.018,107.932 L104.054,107.936 L104.323,107.712 L104.326,107.676 L104.166,107.484 L104.131,107.481 L103.862,107.705 L103.858,107.74 L104.018,107.932"/>
        </g>
        <g id="product-product-a437460b-9b91-4aa6-ad23-8907a7e1bb36-body">
            <path style="stroke:black; fill:none;" d="M98.3765,141.734 L101.352,145.307 L99.5046,146.846 L97.3797,144.295 L97.2261,144.423 L99.4149,147.051 L99.8439,147.566 L99.2058,148.097 L101.33,150.647 L98.7955,152.758 L96.7995,150.362 L97.103,150.109 L96.975,149.956 L96.6715,150.208 L94.918,148.103 L91.4683,143.962 L90.812,143.174 L93.9306,140.576 L95.4597,139.302 L96.4613,140.505 L96.9876,140.067 L98.3765,141.734"/>
        </g>
        <g id="product-product-c7c4a52e-7d90-4dbb-90c4-11db27197e57-body">
            <path style="stroke:black; fill:none;" d="M115.195,133.593 L118.296,131.011 L121.003,134.261 L118.748,136.139 L117.212,134.295 L106.472,143.242 L104.798,141.232 L105.862,140.346 L106.723,141.379 L115.554,134.024 L115.195,133.593"/>
        </g>
        <g id="product-product-198779c2-b75f-403e-94e9-3df6da7f0f36-body">
            <path style="stroke:black; fill:none;" d="M118.688,125.387 L119.884,126.824 L117.913,128.466 L116.717,127.029 L118.688,125.387"/>
        </g>
        <g id="product-product-62c5d844-c70c-434f-809e-6606d40e5686-body">
            <path style="stroke:black; fill:none;" d="M116.968,136.511 L118.048,135.611 L118.722,136.421 L121.208,134.35 L121.411,134.181 L123.87,137.133 L120.101,140.272 L118.419,138.253 L116.968,136.511"/>
        </g>
        <g id="product-product-6852c675-c457-4138-ae18-9b4e00fc0605-body">
            <path style="stroke:black; fill:none;" d="M103.445,139.92 L107.854,145.213 L105.817,146.909 L101.408,141.616 L103.445,139.92"/>
        </g>
        <g id="product-product-b0b19d7c-a0b0-4066-90ae-7104307f536f-body">
            <path style="stroke:black; fill:none;" d="M119.245,130.22 L122.36,127.625 L122.7,128.032 L123.107,127.693 L125.475,130.536 L121.36,133.963 L121.157,134.133 L118.449,130.883 L119.167,130.285 L119.237,130.227 L119.245,130.22"/>
        </g>
        <g id="product-product-ef3db4ce-1260-47d1-870e-f9556553e831-body">
            <path style="stroke:black; fill:none;" d="M93.8795,140.358 L91.3706,137.346 L97.1603,132.524 L98.5395,131.375 L100.648,133.907 L99.2691,135.056 L98.0102,136.104 L97.9156,136.183 L95.458,138.23 L95.858,138.71 L95.4085,139.085 L93.8795,140.358"/>
        </g>
        <g id="product-product-b13438ac-20bd-4a8c-8db9-ab842e02d90c-body">
            <path style="stroke:black; fill:none;" d="M89.4453,85.7286 L89.8997,86.2741 L85.6905,89.7802 L85.2361,89.2346 L89.4453,85.7286"/>
        </g>
        <g id="product-product-a8dd77c2-6448-4dab-9d74-47c821544f2a-body">
            <path style="stroke:black; fill:none;" d="M111.337,120.571 L111.792,121.116 L112.752,120.316 L116.397,124.692 L115.437,125.492 L115.737,125.853 L116.698,125.053 L117.549,126.075 L118.56,125.234 L113.18,118.775 L113.499,118.51 L111.816,116.489 L112.972,115.526 L112.038,114.404 L110.716,115.505 L111.235,116.127 L111.081,116.255 L108.86,113.589 L106.889,115.231 L107.737,116.249 L108.709,115.439 L112.309,119.761 L111.337,120.571"/>
        </g>
        <g id="product-product-a8dd77c2-6448-4dab-9d74-47c821544f31-body">
            <path style="stroke:black; fill:none;" d="M91.2922,96.5054 L87.232,91.6308 L88.4556,90.6116 L88.3276,90.458 L87.104,91.4772 L86.2831,90.4917 L90.4923,86.9856 L91.3132,87.9711 L89.3265,89.6259 L89.4545,89.7796 L90.6781,88.7604 L93.6471,92.3249 L93.0632,92.8113 L94.4072,94.4248 L94.9912,93.9384 L96.1432,95.3215 L92.697,98.1919 L91.4202,96.659 L92.6419,95.6414 L92.7379,95.7567 L92.8916,95.6287 L92.5716,95.2445 L92.4179,95.3725 L92.5139,95.4878 L91.2922,96.5054"/>
        </g>
        <g id="product-product-a8dd77c2-6448-4dab-9d74-47c821544f4d-body">
            <path style="stroke:black; fill:none;" d="M108.817,110.059 L108.878,110.008 L109.934,111.276 L109.811,111.379 L109.939,111.532 L110.062,111.43 L111.118,112.698 L110.918,112.864 L111.046,113.018 L112.402,111.888 L113.362,113.041 L110.588,115.351 L108.886,113.307 L106.761,115.077 L105.609,113.694 L107.734,111.924 L105.839,109.65 L107.303,108.431 L108.724,110.136 L108.817,110.059"/>
        </g>
        <g id="product-product-a8dd77c2-6448-4dab-9d74-47c821544f5a-body">
            <path style="stroke:black; fill:none;" d="M122.935,126.886 L122.716,127.068 L122.257,127.451 L122.231,127.472 L119.193,130.002 L119.192,130.001 L118.041,128.619 L120.166,126.85 L118.777,125.182 L117.657,123.838 L119.056,122.673 L119.121,122.619 L120.413,124.169 L120.414,124.171 L120.542,124.324 L120.635,124.246 L120.695,124.196 L121.815,125.541 L122.935,126.886"/>
        </g>
        <g id="product-product-a8dd77c2-6448-4dab-9d74-47c821544c2e-body">
            <path style="stroke:black; fill:none;" d="M98.4226,93.6831 L96.5055,95.28 L96.5394,95.3207 L97.7983,96.8321 L99.896,95.0848 L98.7806,93.7458 L98.6001,93.8962 L98.4226,93.6831"/>
        </g>
        <g id="product-product-a8dd77c2-6448-4dab-9d74-47c821544c29-body">
            <path style="stroke:black; fill:none;" d="M94.7959,96.704 L96.2807,98.4866 L94.3099,100.128 L92.825,98.3456 L94.7959,96.704"/>
        </g>
        <g id="product-product-9d71ed7f-1ceb-4b81-a569-7db04b42522b-body">
            <path style="stroke:black; fill:none;" d="M110.786,108.159 L108.75,109.855 L108.688,109.906 L107.395,108.354 L108.847,107.145 L109.312,106.757 L109.49,106.97 L109.67,106.82 L110.327,107.608 L110.406,107.703 L110.786,108.159"/>
        </g>
        <g id="product-product-9d71ed7f-1ceb-4b81-a569-7db04b42522e-body">
            <path style="stroke:black; fill:none;" d="M106.166,110.354 L107.452,111.899 L105.481,113.54 L104.195,111.996 L106.166,110.354"/>
        </g>
        <g id="product-product-9d71ed7f-1ceb-4b81-a569-7db04b4253d9-body">
            <path style="stroke:black; fill:none;" d="M122.604,122.347 L120.567,124.043 L120.506,124.094 L119.213,122.542 L121.311,120.795 L121.861,121.455 L121.919,121.524 L120.532,122.68 L120.609,122.772 L121.996,121.617 L121.996,121.618 L122.604,122.347"/>
        </g>
        <g id="product-product-9d71ed7f-1ceb-4b81-a569-7db04b425382-body">
            <path style="stroke:black; fill:none;" d="M97.0133,139.785 L98.5301,141.606 L100.071,140.323 L99.9427,140.169 L100.02,140.105 L102.133,138.345 L100.84,136.793 L99.5078,137.902 L99.4144,137.98 L99.2854,137.825 L98.0448,136.336 L95.7397,138.256 L96.1397,138.736 L95.6134,139.174 L96.487,140.223 L97.0133,139.785"/>
        </g>
        <g id="product-product-9d71ed7f-1ceb-4b81-a569-7db04b425385-body">
            <path style="stroke:black; fill:none;" d="M98.137,136.259 L99.3971,135.209 L100.776,134.061 L105.822,140.118 L105.758,140.172 L105.733,140.193 L104.67,141.078 L103.534,139.715 L103.381,139.843 L102.197,138.422 L102.35,138.294 L100.865,136.511 L99.3786,137.75 L98.137,136.259"/>
        </g>
        <g id="product-product-15875f81-826a-445e-9750-939d433233d5-body">
            <path style="stroke:black; fill:none;" d="M89.9688,86.3571 L90.4232,86.9027 L86.214,90.4087 L85.7596,89.8632 L85.7609,89.8622 L89.9688,86.3571"/>
        </g>
        <g id="product-product-1d2d6dad-8d06-431c-bc10-06bc6bd3f788-body">
            <path style="stroke:black; fill:none;" d="M91.3786,144.166 L94.7003,148.154 L89.1634,152.766 L85.8418,148.778 L91.3786,144.166"/>
        </g>
        <g id="product-product-351059c2-ab51-44ae-a2a9-5502326ad4bf-body">
            <path style="stroke:black; fill:none;" d="M107.333,144.276 L106.491,143.265 L108.17,141.866 L109.012,142.877 L107.333,144.276"/>
        </g>
        <g id="product-product-351059c2-ab51-44ae-a2a9-5502326ad4c3-body">
            <path style="stroke:black; fill:none;" d="M110.702,141.469 L109.035,142.858 L108.193,141.847 L109.86,140.458 L110.702,141.469"/>
        </g>
        <g id="product-product-351059c2-ab51-44ae-a2a9-5502326ad4c7-body">
            <path style="stroke:black; fill:none;" d="M111.778,140.573 L110.725,141.45 L109.883,140.439 L110.936,139.562 L111.778,140.573"/>
        </g>
        <g id="product-product-351059c2-ab51-44ae-a2a9-5502326ad4ca-body">
            <path style="stroke:black; fill:none;" d="M112.864,139.669 L111.801,140.554 L110.959,139.543 L112.022,138.658 L112.864,139.669"/>
        </g>
        <g id="product-product-351059c2-ab51-44ae-a2a9-5502326ad4c9-body">
            <path style="stroke:black; fill:none;" d="M113.863,138.837 L112.887,139.65 L112.045,138.638 L113.021,137.826 L113.863,138.837"/>
        </g>
        <g id="product-product-351059c2-ab51-44ae-a2a9-5502326ad4cc-body">
            <path style="stroke:black; fill:none;" d="M114.862,138.005 L113.886,138.818 L113.044,137.806 L114.019,136.994 L114.862,138.005"/>
        </g>
        <g id="product-product-351059c2-ab51-44ae-a2a9-5502326ad4d3-body">
            <path style="stroke:black; fill:none;" d="M115.861,137.173 L114.885,137.986 L114.043,136.974 L115.018,136.162 L115.861,137.173"/>
        </g>
        <g id="product-product-351059c2-ab51-44ae-a2a9-5502326ad4d6-body">
            <path style="stroke:black; fill:none;" d="M118.05,135.349 L115.884,137.154 L115.041,136.142 L117.208,134.338 L118.05,135.349"/>
        </g>
        <g id="product-product-351059c2-ab51-44ae-a2a9-5502326ad4da-body">
            <path style="stroke:black; fill:none;" d="M111.475,135.671 L113.614,133.888 L114.456,134.899 L112.316,136.681 L111.475,135.671"/>
        </g>
        <g id="product-product-351059c2-ab51-44ae-a2a9-5502326ad4dc-body">
            <path style="stroke:black; fill:none;" d="M109.534,137.287 L110.522,136.464 L111.364,137.475 L110.376,138.297 L109.534,137.287"/>
        </g>
        <g id="product-product-351059c2-ab51-44ae-a2a9-5502326ad4e3-body">
            <path style="stroke:black; fill:none;" d="M108.536,138.119 L109.511,137.306 L110.353,138.316 L109.377,139.129 L108.536,138.119"/>
        </g>
        <g id="product-product-351059c2-ab51-44ae-a2a9-5502326ad4e6-body">
            <path style="stroke:black; fill:none;" d="M107.537,138.951 L108.513,138.138 L109.354,139.148 L108.379,139.961 L107.537,138.951"/>
        </g>
        <g id="product-product-351059c2-ab51-44ae-a2a9-5502326ad4e5-body">
            <path style="stroke:black; fill:none;" d="M105.885,140.326 L107.514,138.97 L108.356,139.981 L106.727,141.337 L105.885,140.326"/>
        </g>
        <g id="product-product-351059c2-ab51-44ae-a2a9-5502326ad4e9-body">
            <path style="stroke:black; fill:none;" d="M113.638,133.869 L114.67,133.009 L115.512,134.02 L114.479,134.88 L113.638,133.869"/>
        </g>
        <g id="product-product-b4a8ee3e-901e-411f-b14d-8f8b5c476c89-body">
            <path style="stroke:black; fill:none;" d="M116.589,126.875 L115.757,125.876 L116.694,125.095 L117.526,126.094 L116.589,126.875"/>
        </g>
        <g id="product-product-b4a8ee3e-901e-411f-b14d-8f8b5c476e99-body">
            <path style="stroke:black; fill:none;" d="M111.209,120.417 L110.227,119.238 L111.176,118.447 L112.158,119.627 L111.209,120.417"/>
        </g>
        <g id="product-product-b4a8ee3e-901e-411f-b14d-8f8b5c476ae2-body">
            <path style="stroke:black; fill:none;" d="M115.309,125.338 L114.365,124.205 L115.302,123.424 L116.246,124.558 L115.309,125.338"/>
        </g>
        <g id="product-product-b4a8ee3e-901e-411f-b14d-8f8b5c476a9d-body">
            <path style="stroke:black; fill:none;" d="M112.662,122.161 L113.6,121.38 L114.432,122.379 L113.494,123.16 L112.662,122.161"/>
        </g>
        <g id="product-product-afbce341-f71a-43fc-a01f-724893b7ca95-body">
            <path style="stroke:black; fill:none;" d="M113.804,116.525 L112.671,117.469 L111.858,116.493 L112.991,115.549 L113.804,116.525"/>
        </g>
        <g id="product-product-afbce341-f71a-43fc-a01f-724893b7c802-body">
            <path style="stroke:black; fill:none;" d="M115.705,118.807 L114.253,120.016 L113.331,118.91 L114.783,117.7 L115.705,118.807"/>
        </g>
        <g id="product-product-afbce341-f71a-43fc-a01f-724893b7c807-body">
            <path style="stroke:black; fill:none;" d="M116.633,119.921 L115.181,121.13 L114.272,120.039 L115.724,118.83 L116.633,119.921"/>
        </g>
        <g id="product-product-afbce341-f71a-43fc-a01f-724893b7c818-body">
            <path style="stroke:black; fill:none;" d="M117.561,121.035 L116.109,122.245 L115.2,121.153 L116.652,119.944 L117.561,121.035"/>
        </g>
        <g id="product-product-afbce341-f71a-43fc-a01f-724893b7c81d-body">
            <path style="stroke:black; fill:none;" d="M117.433,123.569 L117.303,123.678 L116.128,122.268 L117.58,121.058 L118.851,122.583 L117.529,123.684 L117.433,123.569"/>
        </g>
        <g id="product-product-ae92dcd6-cb24-4074-b611-43df56c4762b-body">
            <path style="stroke:black; fill:none;" d="M109.235,118.047 L110.184,117.256 L111.157,118.424 L110.208,119.214 L109.235,118.047"/>
        </g>
        <g id="product-product-56842add-bd80-4a34-ab34-e578a24f1884-body">
            <path style="stroke:black; fill:none;" d="M114.655,117.547 L113.522,118.491 L112.69,117.492 L113.823,116.548 L114.655,117.547"/>
        </g>
        <g id="product-product-094ec8ea-f658-4b9a-9542-5a4db440ad9c-body">
            <path style="stroke:black; fill:none;" d="M111.811,121.139 L112.748,120.358 L113.58,121.357 L112.643,122.138 L111.811,121.139"/>
        </g>
        <g id="product-product-f37fb28e-fcaf-4b63-aba0-4b00cc679451-body">
            <path style="stroke:black; fill:none;" d="M107.757,116.272 L108.705,115.481 L110.165,117.233 L109.216,118.024 L107.757,116.272"/>
        </g>
        <g id="product-product-f008fb13-1837-4290-8d5d-c801a40a1a20-body">
            <path style="stroke:black; fill:none;" d="M122.732,122.5 L123.788,123.768 L121.751,125.464 L120.695,124.196 L122.732,122.5"/>
        </g>
        <g id="product-product-f008fb13-1837-4290-8d5d-c801a40a1a2c-body">
            <path style="stroke:black; fill:none;" d="M122.935,126.886 L121.879,125.618 L123.916,123.922 L124.972,125.19 L122.935,126.886"/>
        </g>
        <g id="product-product-5c2be7d8-6c46-4984-b071-f72581c38694-body">
            <path style="stroke:black; fill:none;" d="M100.118,99.7806 L101.808,98.3726 L103.216,100.063 L101.526,101.471 L100.118,99.7806"/>
        </g>
        <g id="product-product-0692a117-47af-40ef-be87-23fb518e683a-body">
            <path style="stroke:black; fill:none;" d="M110.914,108.312 L111.97,109.58 L109.934,111.276 L108.878,110.008 L110.914,108.312"/>
        </g>
        <g id="product-product-0692a117-47af-40ef-be87-23fb518e683e-body">
            <path style="stroke:black; fill:none;" d="M111.118,112.698 L110.062,111.43 L112.098,109.734 L113.154,111.002 L111.118,112.698"/>
        </g>
        <g id="product-product-1f7db817-9179-4b59-b92d-c1131e8066ed-body">
            <path style="stroke:black; fill:none;" d="M100.024,95.2385 L101.08,96.5063 L99.0438,98.2023 L97.9878,96.9345 L100.024,95.2385"/>
        </g>
        <g id="product-product-1f7db817-9179-4b59-b92d-c1131e806976-body">
            <path style="stroke:black; fill:none;" d="M98.8896,93.5642 L97.9888,92.4827 L99.3719,91.3307 L100.273,92.4122 L98.8896,93.5642"/>
        </g>
        <g id="product-product-5ac2d6b9-28be-4d95-bae2-1a28a99acbe9-body">
            <path style="stroke:black; fill:none;" d="M100.023,95.2395 L97.9878,96.9345 L99.0438,98.2023 L101.08,96.5063 L101.234,96.3783 L101.362,96.532 L101.208,96.66 L102.168,97.8125 L103.278,96.8884 L103.492,96.7098 L103.241,96.4082 L103.454,96.2309 L100.35,92.5044 L98.9664,93.6564 L100.049,94.9556 L100.178,95.1105 L100.023,95.2395"/>
        </g>
        <g id="product-product-490dc95d-315e-4a9f-8a28-2c3c13e380a7-body">
            <path style="stroke:black; fill:none;" d="M94.9496,96.576 L96.5624,98.5123 L94.4379,100.282 L95.6379,101.723 L97.6087,100.081 L97.2727,99.6776 L97.4264,99.5496 L97.8424,100.049 L98.5144,100.856 L99.9129,99.691 L101.68,98.219 L102.168,97.8125 L101.208,96.66 L99.0297,98.4744 L97.7817,96.9761 L97.7061,96.9089 L97.7051,96.9076 L96.4133,95.3568 L94.9496,96.576"/>
        </g>
        <g id="product-product-5f670ad7-f33d-4ca6-8d2b-6d5b24b09618-body">
            <path style="stroke:black; fill:none;" d="M113.513,123.183 L114.451,122.402 L115.283,123.401 L114.345,124.182 L113.513,123.183"/>
        </g>
    </g>
    <g id="storey-642121b0-065d-422b-8ef2-d4d440f8f174">
        <g id="product-product-344e4c21-f0d8-4779-b166-9abce16ba304-body">
            <path style="stroke:black; fill:none;" d="M113.435,111.027 L112.187,109.529 L111.003,108.108 L110.559,107.573 L111.942,106.421 L115.779,111.028 L113.554,112.881 L112.594,111.728 L113.435,111.027"/>
        </g>
        <g id="product-product-dfe9a192-213e-4043-b447-19e7086eff71-body">
            <path style="stroke:black; fill:none;" d="M119.004,122.455 L117.596,120.765 L119.287,119.357 L120.695,121.047 L119.004,122.455"/>
        </g>
        <g id="product-product-0692a117-47af-40ef-be87-23fb518e7124-body">
            <path style="stroke:black; fill:none;" d="M110.482,107.481 L111.865,106.329 L110.262,104.405 L110.184,104.47 L108.802,105.621 L109.506,106.466 L109.583,106.402 L110.482,107.481"/>
        </g>
    </g>
        <g id="product-product-344e4c21-f0d8-4779-b166-9abce16ba0fd-body">
            <path style="stroke:black; fill:none;" d="M101.48,145.461 L103.969,148.449 L103.278,149.025 L103.406,149.178 L104.097,148.602 L106.556,151.554 L104.07,153.625 L101.611,150.673 L102.376,150.036 L102.248,149.883 L101.483,150.519 L100.662,149.533 L100.641,149.508 L99.4874,148.123 L100.126,147.592 L99.6326,147 L101.48,145.461"/>
        </g>
        <g id="product-product-344e4c21-f0d8-4779-b166-9abce16ba0f8-body">
            <path style="stroke:black; fill:none;" d="M110.44,148.319 L106.71,151.426 L104.251,148.474 L107.982,145.367 L110.44,148.319"/>
        </g>
        <g id="product-product-ae7fa21b-d22a-4b28-bcb1-88873fbd7621-body">
            <path style="stroke:black; fill:none;" d="M94.5388,161.564 L88.1387,153.88 L91.9806,150.68 L98.3807,158.364 L94.5388,161.564"/>
        </g>
        <g id="product-product-a6252783-5860-4b2d-bbe0-51bc29274a26-body">
            <path style="stroke:black; fill:none;" d="M97.0133,139.785 L97.9435,140.902 L97.9647,140.927 L99.7771,143.103 L99.9072,143.259 L101.57,145.256 L104.187,148.398 L104.251,148.474 L105.792,147.191 L104.148,145.218 L104.127,145.192 L103.306,144.206 L102.39,143.107 L101.191,141.667 L101.275,141.597 L100.155,140.252 L100.071,140.323 L99.9427,140.169 L99.9417,140.168 L98.6509,138.618 L98.6499,138.617 L98.5219,138.463 L98.6153,138.385 L99.7493,137.441 L98.5077,135.95 L95.7397,138.256 L96.1397,138.736 L95.6134,139.174 L96.454,140.184 L96.487,140.223 L97.0133,139.785"/>
        </g>
    </g>
</svg>
